<svg width="32" height="32" viewBox="0 0 32 32" fill="none" xmlns="http://www.w3.org/2000/svg">
<path d="M21.3333 2.66667H10.6667C6 2.66667 4 5.33333 4 9.33333V22.6667C4 26.6667 6 29.3333 10.6667 29.3333H21.3333C26 29.3333 28 26.6667 28 22.6667V9.33333C28 5.33333 26 2.66667 21.3333 2.66667ZM10.6667 16.3333H16C16.5467 16.3333 17 16.7867 17 17.3333C17 17.88 16.5467 18.3333 16 18.3333H10.6667C10.12 18.3333 9.66667 17.88 9.66667 17.3333C9.66667 16.7867 10.12 16.3333 10.6667 16.3333ZM21.3333 23.6667H10.6667C10.12 23.6667 9.66667 23.2133 9.66667 22.6667C9.66667 22.12 10.12 21.6667 10.6667 21.6667H21.3333C21.88 21.6667 22.3333 22.12 22.3333 22.6667C22.3333 23.2133 21.88 23.6667 21.3333 23.6667ZM24.6667 12.3333H22C19.9733 12.3333 18.3333 10.6933 18.3333 8.66667V6C18.3333 5.45333 18.7867 5 19.3333 5C19.88 5 20.3333 5.45333 20.3333 6V8.66667C20.3333 9.58667 21.08 10.3333 22 10.3333H24.6667C25.2133 10.3333 25.6667 10.7867 25.6667 11.3333C25.6667 11.88 25.2133 12.3333 24.6667 12.3333Z" fill="#17C964"/>
</svg>
